<svg width="36" height="36" viewBox="0 0 36 36" fill="none" xmlns="http://www.w3.org/2000/svg">
<circle cx="18" cy="18" r="18" fill="#778CEB"/>
<path d="M13.8746 9.61904L13.8746 9.61905L15.1032 11.1555C15.1033 11.1556 15.1034 11.1557 15.1034 11.1558C15.4643 11.6042 15.6724 12.1561 15.6974 12.7311C15.7225 13.3061 15.5631 13.8741 15.2426 14.3522C15.2426 14.3522 15.2425 14.3523 15.2425 14.3523L14.285 15.7886C14.5742 16.9826 15.1869 18.0745 16.0563 18.944C16.9258 19.8135 18.0177 20.4261 19.2117 20.7154L20.648 19.7578C20.6481 19.7577 20.6483 19.7577 20.6484 19.7576C21.1265 19.4372 21.6943 19.2779 22.2693 19.3029C22.8442 19.328 23.3961 19.5361 23.8444 19.8969C23.8446 19.897 23.8447 19.8971 23.8448 19.8972L25.381 21.1216L25.3813 21.1218C25.7159 21.3894 25.9827 21.7321 26.1599 22.1222C26.3372 22.5123 26.4199 22.9387 26.4014 23.3668C26.3829 23.7948 26.2637 24.2125 26.0534 24.5858C25.8432 24.9591 25.5478 25.2776 25.1914 25.5153L25.1913 25.5154L23.7115 26.5013L13.8746 9.61904ZM13.8746 9.61904C13.607 9.28442 13.2642 9.01766 12.8741 8.84041C12.484 8.66316 12.0577 8.58042 11.6296 8.59893C11.2015 8.61744 10.7839 8.73666 10.4105 8.94691C10.0372 9.15717 9.71874 9.45252 9.481 9.80899L9.48095 9.80907M13.8746 9.61904L9.48095 9.80907M9.48095 9.80907L8.49508 11.2889C8.49506 11.2889 8.49504 11.2889 8.49502 11.289C8.0135 12.0099 7.71461 12.8371 7.62412 13.6993C7.53362 14.5616 7.65427 15.4329 7.97564 16.2381L7.97584 16.2386M9.48095 9.80907L7.97584 16.2386M7.97584 16.2386C8.95386 18.6701 10.4136 20.8788 12.2671 22.7317C14.1207 24.5846 16.3299 26.0434 18.7618 27.0205L18.7623 27.0207M7.97584 16.2386L18.7623 27.0207M18.7623 27.0207C19.5675 27.3421 20.4388 27.4627 21.301 27.3722M18.7623 27.0207L21.301 27.3722M22.9344 25.3406L22.9345 25.3405L24.4144 24.3546C24.5876 24.239 24.7312 24.0842 24.8333 23.9027C24.9355 23.7213 24.9934 23.5183 25.0024 23.3102C25.0113 23.1022 24.9711 22.895 24.885 22.7054C24.7988 22.5158 24.6691 22.3492 24.5065 22.2192L22.9695 20.9902L22.9686 20.9895C22.7524 20.8146 22.4858 20.7136 22.208 20.7015C21.9302 20.6893 21.6558 20.7666 21.4251 20.9219L21.4244 20.9223L19.7407 22.0451L22.9344 25.3406ZM22.9344 25.3406C22.4023 25.6956 21.7918 25.9158 21.1556 25.9821M22.9344 25.3406L21.1556 25.9821M9.65984 12.0658L9.65977 12.0659C9.3048 12.5981 9.08466 13.2086 9.01833 13.8448C8.95202 14.4809 9.04149 15.1237 9.27903 15.7175C10.1862 17.9731 11.5401 20.0221 13.2592 21.7412C14.9783 23.4603 17.0271 24.8141 19.2827 25.7213L9.65984 12.0658ZM9.65984 12.0658L10.6458 10.5858L10.6458 10.5858M9.65984 12.0658L10.6458 10.5858M10.6458 10.5858L10.6465 10.5849M10.6458 10.5858L10.6465 10.5849M10.6465 10.5849C10.7607 10.4113 10.9147 10.2675 11.0957 10.1654C11.2756 10.0639 11.477 10.0065 11.6834 9.99795L11.7484 9.99796L11.749 9.99795M10.6465 10.5849L11.749 9.99795M11.749 9.99795C11.9471 9.99732 12.1426 10.0417 12.321 10.1278C12.4993 10.2139 12.6557 10.3394 12.7784 10.4949L12.7784 10.4949M11.749 9.99795L12.7784 10.4949M12.7784 10.4949L12.7794 10.4961M12.7784 10.4949L12.7794 10.4961M12.7794 10.4961L14.0104 12.0311L14.0109 12.0317M12.7794 10.4961L14.0109 12.0317M14.0109 12.0317C14.1858 12.2479 14.2867 12.5145 14.2989 12.7924C14.311 13.0702 14.2338 13.3446 14.0785 13.5753L14.078 13.576M14.0109 12.0317L14.078 13.576M14.078 13.576L12.9552 15.2596M14.078 13.576L12.9552 15.2596M21.301 27.3722C22.1632 27.2817 22.9904 26.9829 23.7113 26.5014L21.301 27.3722ZM21.1556 25.9821C20.5195 26.0485 19.8768 25.959 19.283 25.7214L21.1556 25.9821ZM12.9552 15.2596C12.9552 15.2597 12.9552 15.2597 12.9551 15.2598M12.9552 15.2596L12.9551 15.2598M12.9551 15.2598C12.9039 15.3363 12.8683 15.4221 12.8503 15.5124C12.8323 15.6026 12.8323 15.6956 12.8502 15.7859L12.9551 15.2598ZM15.066 19.9343C13.9331 18.8014 13.1619 17.3576 12.8502 15.786L15.066 19.9343ZM15.066 19.9343C16.199 21.0673 17.6428 21.8385 19.2145 22.1501M15.066 19.9343L19.2145 22.1501M19.2145 22.1501C19.3048 22.1681 19.3977 22.1681 19.488 22.1501M19.2145 22.1501L19.488 22.1501M19.488 22.1501C19.5782 22.1321 19.6639 22.0965 19.7404 22.0453L19.488 22.1501Z" fill="white" stroke="white" stroke-width="0.4"/>
<path d="M22.9752 17.3V17.3001C22.9752 17.4857 22.9014 17.6638 22.7702 17.7951C22.6389 17.9263 22.4608 18.0001 22.2752 18.0001C22.0895 18.0001 21.9115 17.9263 21.7802 17.7951C21.649 17.6638 21.5752 17.4858 21.5752 17.3002C21.5747 16.2726 21.1663 15.2873 20.4396 14.5606C19.7131 13.8341 18.7277 13.4256 17.7002 13.4251L22.9752 17.3ZM22.9752 17.3C22.9746 15.9012 22.4187 14.5598 21.4296 13.5707C20.4405 12.5816 19.0991 12.0256 17.7003 12.0251H17.7002M22.9752 17.3L17.7002 12.0251M17.7002 12.0251C17.5145 12.0251 17.3365 12.0988 17.2052 12.2301M17.7002 12.0251L17.2052 12.2301M17.2052 12.2301C17.0739 12.3614 17.0002 12.5394 17.0002 12.7251M17.2052 12.2301L17.0002 12.7251M17.0002 12.7251C17.0002 12.9107 17.0739 13.0888 17.2052 13.2201M17.0002 12.7251L17.2052 13.2201M17.2052 13.2201C17.3365 13.3513 17.5145 13.4251 17.7001 13.4251L17.2052 13.2201Z" fill="white" stroke="white" stroke-width="0.4"/>
<path d="M26.4002 17.2998V17.2996C26.3975 14.9931 25.48 12.7818 23.8491 11.1509C22.2182 9.51996 20.0069 8.60251 17.7004 8.5998H17.7002C17.5145 8.5998 17.3365 8.67355 17.2052 8.80483C17.0739 8.93611 17.0002 9.11415 17.0002 9.2998C17.0002 9.48546 17.0739 9.6635 17.2052 9.79478C17.3364 9.926 17.5144 9.99975 17.7 9.9998C19.6355 10.0019 21.4911 10.7717 22.8597 12.1403C24.2283 13.5089 24.9981 15.3645 25.0002 17.3C25.0003 17.4856 25.074 17.6636 25.2052 17.7948C25.3365 17.9261 25.5145 17.9998 25.7002 17.9998C25.8858 17.9998 26.0639 17.9261 26.1952 17.7948C26.3264 17.6635 26.4002 17.4855 26.4002 17.2998Z" fill="white" stroke="white" stroke-width="0.4"/>
</svg>
